<?xml version="1.0" encoding="UTF-8" standalone="no"?>
<!-- Generated by Microsoft Visio 11.0, SVG Export, v1.0 disk_line.svg Page-12 -->

<svg
   width="140mm"
   height="50mm"
   viewBox="0 0 396.84952 141.73235"
   xml:space="preserve"
   class="st19"
   version="1.1"
   id="svg345"
   sodipodi:docname="standard-atmosphere-1.svg"
   style="font-size:12px;overflow:visible;color-interpolation-filters:sRGB;fill:none;fill-rule:evenodd;stroke-linecap:square;stroke-miterlimit:3"
   inkscape:version="1.4.2 (f4327f4, 2025-05-13)"
   xmlns:inkscape="http://www.inkscape.org/namespaces/inkscape"
   xmlns:sodipodi="http://sodipodi.sourceforge.net/DTD/sodipodi-0.dtd"
   xmlns="http://www.w3.org/2000/svg"
   xmlns:svg="http://www.w3.org/2000/svg"
   xmlns:rdf="http://www.w3.org/1999/02/22-rdf-syntax-ns#"
   xmlns:cc="http://creativecommons.org/ns#"
   xmlns:dc="http://purl.org/dc/elements/1.1/"
   xmlns:v="http://schemas.microsoft.com/visio/2003/SVGExtensions/"><metadata
   id="metadata349"><rdf:RDF><cc:Work
       rdf:about=""><dc:format>image/svg+xml</dc:format><dc:type
         rdf:resource="http://purl.org/dc/dcmitype/StillImage" /></cc:Work></rdf:RDF></metadata><sodipodi:namedview
   pagecolor="#ffffff"
   bordercolor="#666666"
   borderopacity="1"
   objecttolerance="10"
   gridtolerance="10"
   guidetolerance="10"
   inkscape:pageopacity="0"
   inkscape:pageshadow="2"
   inkscape:window-width="1920"
   inkscape:window-height="974"
   id="namedview347"
   showgrid="true"
   units="mm"
   inkscape:document-units="mm"
   inkscape:zoom="2.8284271"
   inkscape:cx="158.03837"
   inkscape:cy="63.462834"
   inkscape:window-x="2869"
   inkscape:window-y="-11"
   inkscape:window-maximized="1"
   inkscape:current-layer="g343"
   inkscape:snap-global="true"
   inkscape:showpageshadow="2"
   inkscape:pagecheckerboard="0"
   inkscape:deskcolor="#d1d1d1"><inkscape:grid
     units="mm"
     spacingx="2.8346395"
     spacingy="2.8346473"
     type="xygrid"
     id="grid4859"
     originx="0"
     originy="0" /></sodipodi:namedview>
	<v:documentProperties
   v:langID="1033"
   v:metric="true"
   v:viewMarkup="false">
		<v:userDefs>
			<v:ud
   v:nameU="msvNoAutoConnect"
   v:val="VT0(1):26" />
		</v:userDefs>
	</v:documentProperties>

	<style
   type="text/css"
   id="style2">
	<![CDATA[
		.st1 {stroke:#ffffff;stroke-linecap:round;stroke-linejoin:round;stroke-width:0.75}
		.st2 {stroke:#7f7f7f;stroke-linecap:round;stroke-linejoin:round;stroke-width:0.75}
		.st3 {marker-start:url(#mrkr1-12);stroke:#000000;stroke-linecap:round;stroke-linejoin:round;stroke-width:0.75}
		.st4 {fill:#000000;fill-opacity:1;stroke:#000000;stroke-opacity:1;stroke-width:0.22935779816514}
		.st5 {fill:none;stroke:none;stroke-linecap:round;stroke-linejoin:round;stroke-width:0.75}
		.st6 {stroke:#000000;stroke-linecap:round;stroke-linejoin:round;stroke-width:0.24}
		.st7 {stroke:#7f7f7f;stroke-linecap:round;stroke-linejoin:round;stroke-width:0.24}
		.st8 {fill:none;stroke:#000000;stroke-linecap:round;stroke-linejoin:round;stroke-width:0.24}
		.st9 {fill:#000000;font-family:Calibri;font-size:1.33333em}
		.st10 {fill:none;stroke:none;stroke-linecap:round;stroke-linejoin:round;stroke-width:0.25}
		.st11 {font-size:1em}
		.st12 {marker-end:url(#mrkr1-53);marker-start:url(#mrkr1-12);stroke:#000000;stroke-linecap:round;stroke-linejoin:round;stroke-width:0.75}
		.st13 {stroke:#7f7f7f;stroke-dasharray:1.68,1.2;stroke-linecap:round;stroke-linejoin:round;stroke-width:0.24}
		.st14 {fill:url(#ptrn2-78);shape-rendering:crispEdges;stroke:#000000;stroke-linecap:round;stroke-linejoin:round;stroke-width:0.24}
		.st15 {stroke:#7f7f7f;stroke-linecap:round;stroke-linejoin:round;stroke-width:0.25}
		.st16 {stroke:#000000;stroke-linecap:round;stroke-linejoin:round;stroke-width:0.75}
		.st17 {stroke:#7f7f7f;stroke-dasharray:1.75,1.25;stroke-linecap:round;stroke-linejoin:round;stroke-width:0.25}
		.st18 {fill:#000000;stroke:#000000;stroke-linecap:round;stroke-linejoin:round;stroke-width:0.24}
		.st19 {fill:none;fill-rule:evenodd;font-size:12px;overflow:visible;stroke-linecap:square;stroke-miterlimit:3}
	]]>
	</style>

	<defs
   id="Patterns_And_Gradients"><marker
     style="overflow:visible"
     id="DartArrow"
     refX="0"
     refY="0"
     orient="auto-start-reverse"
     inkscape:stockid="Dart arrow"
     markerWidth="1"
     markerHeight="1"
     viewBox="0 0 1 1"
     inkscape:isstock="true"
     inkscape:collect="always"
     preserveAspectRatio="xMidYMid"><path
       style="fill:context-stroke;fill-rule:evenodd;stroke:none"
       d="M 0,0 5,-5 -12.5,0 5,5 Z"
       transform="scale(-0.5)"
       id="path6" /></marker><linearGradient
     id="linearGradient2764"
     inkscape:swatch="solid"><stop
       style="stop-color:#000000;stop-opacity:1;"
       offset="0"
       id="stop2762" /></linearGradient><linearGradient
     id="linearGradient1022"
     inkscape:swatch="solid"><stop
       style="stop-color:#808080;stop-opacity:1;"
       offset="0"
       id="stop1020" /></linearGradient><clipPath
     id="clip-0">
      <path
   clip-rule="nonzero"
   d="M 2,15 H 12 V 27.375 H 2 Z m 0,0"
   id="path16" />
    </clipPath><clipPath
     id="clip-8">
      <path
   clip-rule="nonzero"
   d="m 56,0 h 6 v 8.300781 h -6 z m 0,0"
   id="path35" />
    </clipPath><clipPath
     id="clip-8-1">
      <path
   clip-rule="nonzero"
   d="m 56,0 h 6 v 8.300781 h -6 z m 0,0"
   id="path35-3" />
    </clipPath><clipPath
     id="clip-12">
      <path
   clip-rule="nonzero"
   d="m 85,0 h 6.457031 V 8.300781 H 85 Z m 0,0"
   id="path50" />
    </clipPath><clipPath
     id="clip-12-0">
      <path
   clip-rule="nonzero"
   d="m 85,0 h 6.457031 V 8.300781 H 85 Z m 0,0"
   id="path50-5" />
    </clipPath><marker
     style="overflow:visible"
     id="DartArrow-8"
     refX="0"
     refY="0"
     orient="auto-start-reverse"
     inkscape:stockid="Dart arrow"
     markerWidth="1"
     markerHeight="1"
     viewBox="0 0 1 1"
     inkscape:isstock="true"
     inkscape:collect="always"
     preserveAspectRatio="xMidYMid"><path
       style="fill:context-stroke;fill-rule:evenodd;stroke:none"
       d="M 0,0 5,-5 -12.5,0 5,5 Z"
       transform="scale(-0.5)"
       id="path6-2" /></marker><marker
     style="overflow:visible"
     id="DartArrow-8-5"
     refX="0"
     refY="0"
     orient="auto-start-reverse"
     inkscape:stockid="Dart arrow"
     markerWidth="1"
     markerHeight="1"
     viewBox="0 0 1 1"
     inkscape:isstock="true"
     inkscape:collect="always"
     preserveAspectRatio="xMidYMid"><path
       style="fill:context-stroke;fill-rule:evenodd;stroke:none"
       d="M 0,0 5,-5 -12.5,0 5,5 Z"
       transform="scale(-0.5)"
       id="path6-2-1" /></marker><marker
     style="overflow:visible"
     id="DartArrow-8-1"
     refX="0"
     refY="0"
     orient="auto-start-reverse"
     inkscape:stockid="Dart arrow"
     markerWidth="1"
     markerHeight="1"
     viewBox="0 0 1 1"
     inkscape:isstock="true"
     inkscape:collect="always"
     preserveAspectRatio="xMidYMid"><path
       style="fill:context-stroke;fill-rule:evenodd;stroke:none"
       d="M 0,0 5,-5 -12.5,0 5,5 Z"
       transform="scale(-0.5)"
       id="path6-2-5" /></marker><marker
     style="overflow:visible"
     id="DartArrow-8-1-6"
     refX="0"
     refY="0"
     orient="auto-start-reverse"
     inkscape:stockid="Dart arrow"
     markerWidth="1"
     markerHeight="1"
     viewBox="0 0 1 1"
     inkscape:isstock="true"
     inkscape:collect="always"
     preserveAspectRatio="xMidYMid"><path
       style="fill:context-stroke;fill-rule:evenodd;stroke:none"
       d="M 0,0 5,-5 -12.5,0 5,5 Z"
       transform="scale(-0.5)"
       id="path6-2-5-1" /></marker><marker
     style="overflow:visible"
     id="DartArrow-8-1-6-3"
     refX="0"
     refY="0"
     orient="auto-start-reverse"
     inkscape:stockid="Dart arrow"
     markerWidth="1"
     markerHeight="1"
     viewBox="0 0 1 1"
     inkscape:isstock="true"
     inkscape:collect="always"
     preserveAspectRatio="xMidYMid"><path
       style="fill:context-stroke;fill-rule:evenodd;stroke:none"
       d="M 0,0 5,-5 -12.5,0 5,5 Z"
       transform="scale(-0.5)"
       id="path6-2-5-1-2" /></marker><marker
     style="overflow:visible"
     id="DartArrow-8-1-6-3-6"
     refX="0"
     refY="0"
     orient="auto-start-reverse"
     inkscape:stockid="Dart arrow"
     markerWidth="1"
     markerHeight="1"
     viewBox="0 0 1 1"
     inkscape:isstock="true"
     inkscape:collect="always"
     preserveAspectRatio="xMidYMid"><path
       style="fill:context-stroke;fill-rule:evenodd;stroke:none"
       d="M 0,0 5,-5 -12.5,0 5,5 Z"
       transform="scale(-0.5)"
       id="path6-2-5-1-2-8" /></marker><marker
     style="overflow:visible"
     id="DartArrow-8-1-6-3-6-6"
     refX="0"
     refY="0"
     orient="auto-start-reverse"
     inkscape:stockid="Dart arrow"
     markerWidth="1"
     markerHeight="1"
     viewBox="0 0 1 1"
     inkscape:isstock="true"
     inkscape:collect="always"
     preserveAspectRatio="xMidYMid"><path
       style="fill:context-stroke;fill-rule:evenodd;stroke:none"
       d="M 0,0 5,-5 -12.5,0 5,5 Z"
       transform="scale(-0.5)"
       id="path6-2-5-1-2-8-1" /></marker><marker
     style="overflow:visible"
     id="DartArrow-8-1-6-3-6-2"
     refX="0"
     refY="0"
     orient="auto-start-reverse"
     inkscape:stockid="Dart arrow"
     markerWidth="1"
     markerHeight="1"
     viewBox="0 0 1 1"
     inkscape:isstock="true"
     inkscape:collect="always"
     preserveAspectRatio="xMidYMid"><path
       style="fill:context-stroke;fill-rule:evenodd;stroke:none"
       d="M 0,0 5,-5 -12.5,0 5,5 Z"
       transform="scale(-0.5)"
       id="path6-2-5-1-2-8-7" /></marker></defs>
	<defs
   id="Markers" />
	<g
   v:mID="14"
   v:index="12"
   v:groupContext="foregroundPage"
   id="g343"
   transform="translate(0,-41.0548)">
		<title
   id="title18">Page-12</title>
		<v:pageProperties
   v:drawingScale="0.0393701"
   v:pageScale="0.0393701"
   v:drawingUnits="24"
   v:shadowOffsetX="8.50394"
   v:shadowOffsetY="-8.50394" />
		
		
		
		
		
		
		
		
		
		
		
		
		
		
		
		
		
		
		
		
		
		<text
   id="text2577"
   y="-22.776052"
   x="120.69289"
   style="font-style:normal;font-weight:normal;font-size:30px;line-height:1.25;font-family:sans-serif;letter-spacing:0px;word-spacing:0px;fill:#000000;fill-opacity:1;stroke:none;stroke-width:0.75"
   xml:space="preserve" />
<text
   id="text2581"
   y="-42.18726"
   x="121.88948"
   style="font-style:normal;font-weight:normal;font-size:30px;line-height:1.25;font-family:sans-serif;letter-spacing:0px;word-spacing:0px;fill:#000000;fill-opacity:1;stroke:none;stroke-width:0.75"
   xml:space="preserve" />


		
		
		
		
		
		
		
		
		
		
		
		
		
		
		
		
		
		
		
	<text
   xml:space="preserve"
   style="font-style:normal;font-weight:normal;font-size:30px;line-height:1.25;font-family:sans-serif;letter-spacing:0px;word-spacing:0px;fill:#000000;fill-opacity:1;stroke:none;stroke-width:0.75"
   x="64.699959"
   y="-185.91338"
   id="text5433" />





<text
   xml:space="preserve"
   style="font-style:normal;font-weight:normal;font-size:30px;line-height:1.25;font-family:sans-serif;letter-spacing:0px;word-spacing:0px;fill:#000000;fill-opacity:1;stroke:none;stroke-width:0.75"
   x="198.42496"
   y="-157.56691"
   id="text5558" />






<text
   xml:space="preserve"
   style="font-style:italic;font-variant:normal;font-weight:normal;font-stretch:normal;font-size:16.0066px;line-height:1.25;font-family:'Century Schoolbook';-inkscape-font-specification:'Century Schoolbook Italic';letter-spacing:0px;word-spacing:0px;overflow:visible;color-interpolation-filters:sRGB;fill:#000000;fill-rule:evenodd;stroke-width:1.00042;stroke-linecap:square;stroke-miterlimit:3"
   x="216.18295"
   y="115.99474"
   id="text406-7-6-6-9-6-3"><tspan
     sodipodi:role="line"
     id="tspan6962-24-6-0"
     x="216.18295"
     y="115.99474"
     style="font-style:italic;font-variant:normal;font-weight:normal;font-stretch:normal;font-family:'Century Schoolbook';-inkscape-font-specification:'Century Schoolbook Italic';stroke-width:1.00042">ρgdZ </tspan><tspan
     sodipodi:role="line"
     x="216.18295"
     y="136.00299"
     id="tspan6069"
     style="font-style:italic;font-variant:normal;font-weight:normal;font-stretch:normal;font-family:'Century Schoolbook';-inkscape-font-specification:'Century Schoolbook Italic';stroke-width:1.00042" /><tspan
     sodipodi:role="line"
     x="216.18295"
     y="156.01125"
     id="tspan3891"
     style="font-style:italic;font-variant:normal;font-weight:normal;font-stretch:normal;font-family:'Century Schoolbook';-inkscape-font-specification:'Century Schoolbook Italic';stroke-width:1.00042" /></text><text
   xml:space="preserve"
   style="font-style:italic;font-variant:normal;font-weight:normal;font-stretch:normal;font-size:16.0066px;line-height:1.25;font-family:'Century Schoolbook';-inkscape-font-specification:'Century Schoolbook Italic';letter-spacing:0px;word-spacing:0px;overflow:visible;color-interpolation-filters:sRGB;fill:#000000;fill-rule:evenodd;stroke-width:1.00042;stroke-linecap:square;stroke-miterlimit:3"
   x="27.087612"
   y="158.80933"
   id="text406-7-6-6-9-6-3-7"><tspan
     sodipodi:role="line"
     x="27.087612"
     y="158.80933"
     id="tspan3891-9"
     style="font-style:normal;font-variant:normal;font-weight:normal;font-stretch:normal;font-family:Arial;-inkscape-font-specification:Arial;stroke-width:1.00042">Unit Area</tspan></text><text
   xml:space="preserve"
   style="font-style:italic;font-variant:normal;font-weight:normal;font-stretch:normal;font-size:16.0066px;line-height:1.25;font-family:'Century Schoolbook';-inkscape-font-specification:'Century Schoolbook Italic';letter-spacing:0px;word-spacing:0px;overflow:visible;color-interpolation-filters:sRGB;fill:#000000;fill-rule:evenodd;stroke-width:1.00042;stroke-linecap:square;stroke-miterlimit:3"
   x="283.4642"
   y="164.69267"
   id="text406-7-6-6-9-6-3-3"><tspan
     sodipodi:role="line"
     id="tspan6962-24-6-0-1"
     x="283.4642"
     y="164.69267"
     style="font-style:italic;font-variant:normal;font-weight:normal;font-stretch:normal;font-family:'Century Schoolbook';-inkscape-font-specification:'Century Schoolbook Italic';stroke-width:1.00042">P<tspan
   style="font-style:normal;font-variant:normal;font-weight:normal;font-stretch:normal;font-family:'Century Schoolbook';-inkscape-font-specification:'Century Schoolbook'"
   id="tspan7">(</tspan>Z<tspan
   style="font-style:normal;font-variant:normal;font-weight:normal;font-stretch:normal;font-family:'Century Schoolbook';-inkscape-font-specification:'Century Schoolbook'"
   id="tspan6">)</tspan> </tspan><tspan
     sodipodi:role="line"
     x="283.4642"
     y="184.70093"
     id="tspan6069-3"
     style="font-style:italic;font-variant:normal;font-weight:normal;font-stretch:normal;font-family:'Century Schoolbook';-inkscape-font-specification:'Century Schoolbook Italic';stroke-width:1.00042" /><tspan
     sodipodi:role="line"
     x="283.4642"
     y="204.70917"
     id="tspan3891-3"
     style="font-style:italic;font-variant:normal;font-weight:normal;font-stretch:normal;font-family:'Century Schoolbook';-inkscape-font-specification:'Century Schoolbook Italic';stroke-width:1.00042" /></text><text
   xml:space="preserve"
   style="font-style:italic;font-variant:normal;font-weight:normal;font-stretch:normal;font-size:16.0066px;line-height:1.25;font-family:'Century Schoolbook';-inkscape-font-specification:'Century Schoolbook Italic';letter-spacing:0px;word-spacing:0px;overflow:visible;color-interpolation-filters:sRGB;fill:#000000;fill-rule:evenodd;stroke-width:1.00042;stroke-linecap:square;stroke-miterlimit:3"
   x="283.48764"
   y="65.958786"
   id="text406-7-6-6-9-6-3-3-1"><tspan
     sodipodi:role="line"
     id="tspan6962-24-6-0-1-1"
     x="283.48764"
     y="65.958786"
     style="font-style:italic;font-variant:normal;font-weight:normal;font-stretch:normal;font-family:'Century Schoolbook';-inkscape-font-specification:'Century Schoolbook Italic';stroke-width:1.00042">P<tspan
   style="font-style:normal;font-variant:normal;font-weight:normal;font-stretch:normal;font-family:'Century Schoolbook';-inkscape-font-specification:'Century Schoolbook'"
   id="tspan7-3">(</tspan>Z+dZ<tspan
   style="font-style:normal;font-variant:normal;font-weight:normal;font-stretch:normal;font-family:'Century Schoolbook';-inkscape-font-specification:'Century Schoolbook'"
   id="tspan6-8">)</tspan> </tspan><tspan
     sodipodi:role="line"
     x="283.48764"
     y="85.967033"
     id="tspan6069-3-7"
     style="font-style:italic;font-variant:normal;font-weight:normal;font-stretch:normal;font-family:'Century Schoolbook';-inkscape-font-specification:'Century Schoolbook Italic';stroke-width:1.00042" /><tspan
     sodipodi:role="line"
     x="283.48764"
     y="105.97528"
     id="tspan3891-3-4"
     style="font-style:italic;font-variant:normal;font-weight:normal;font-stretch:normal;font-family:'Century Schoolbook';-inkscape-font-specification:'Century Schoolbook Italic';stroke-width:1.00042" /></text><g
   inkscape:label=""
   transform="translate(129,140.60386)"
   id="g12032"><g
   clip-path="url(#clip-0)"
   id="g17"
   transform="translate(-0.609374,0.252875)">
    <g
   fill="#000000"
   fill-opacity="1"
   id="g15">
      <g
   id="use13"
   transform="translate(0,8.1689997)">
        <path
   d="m 7.59375,-8.3125 c 0,-0.109375 -0.09375,-0.109375 -0.109375,-0.109375 -0.046875,0 -0.0625,0.015625 -0.203125,0.203125 C 7.203125,-8.140625 6.71875,-7.515625 6.703125,-7.5 6.3125,-8.28125 5.515625,-8.421875 5.015625,-8.421875 3.5,-8.421875 2.125,-7.03125 2.125,-5.671875 2.125,-4.78125 2.671875,-4.25 3.25,-4.046875 3.375,-4 4.09375,-3.8125 4.453125,-3.734375 5.0625,-3.5625 5.21875,-3.515625 5.46875,-3.25 5.515625,-3.1875 5.75,-2.921875 5.75,-2.359375 5.75,-1.25 4.71875,-0.09375 3.53125,-0.09375 c -0.984375,0 -2.078125,-0.421875 -2.078125,-1.765625 0,-0.21875 0.046875,-0.5 0.09375,-0.625 0,-0.03125 0,-0.09375 0,-0.125 0,-0.046875 -0.015625,-0.109375 -0.109375,-0.109375 -0.109375,0 -0.125,0.03125 -0.171875,0.234375 L 0.65625,-0.03125 c 0,0 -0.046875,0.15625 -0.046875,0.171875 C 0.609375,0.25 0.703125,0.25 0.734375,0.25 0.78125,0.25 0.78125,0.234375 0.9375,0.0625 L 1.484375,-0.65625 C 1.765625,-0.234375 2.390625,0.25 3.5,0.25 c 1.546875,0 2.953125,-1.5 2.953125,-2.984375 0,-0.5 -0.125,-0.953125 -0.578125,-1.390625 -0.25,-0.25 -0.453125,-0.3125 -1.5625,-0.59375 -0.796875,-0.21875 -0.90625,-0.25 -1.125,-0.4375 -0.203125,-0.203125 -0.359375,-0.5 -0.359375,-0.90625 0,-1 1.015625,-2.03125 2.15625,-2.03125 1.171875,0 1.71875,0.71875 1.71875,1.859375 0,0.3125 -0.0625,0.625 -0.0625,0.671875 0,0.109375 0.09375,0.109375 0.140625,0.109375 0.109375,0 0.109375,-0.03125 0.15625,-0.21875 z m 0,0"
   id="path6271" />
      </g>
    </g>
  </g>
</g><g
   inkscape:label=""
   transform="translate(129,140.60386)"
   id="g15688"><g
   clip-path="url(#clip-0)"
   id="g15686"
   transform="translate(-0.609374,0.252875)">
    <g
   fill="#000000"
   fill-opacity="1"
   id="g15684">
      <g
   id="g15682"
   transform="translate(0,8.1689997)">
        <path
   d="m 7.59375,-8.3125 c 0,-0.109375 -0.09375,-0.109375 -0.109375,-0.109375 -0.046875,0 -0.0625,0.015625 -0.203125,0.203125 C 7.203125,-8.140625 6.71875,-7.515625 6.703125,-7.5 6.3125,-8.28125 5.515625,-8.421875 5.015625,-8.421875 3.5,-8.421875 2.125,-7.03125 2.125,-5.671875 2.125,-4.78125 2.671875,-4.25 3.25,-4.046875 3.375,-4 4.09375,-3.8125 4.453125,-3.734375 5.0625,-3.5625 5.21875,-3.515625 5.46875,-3.25 5.515625,-3.1875 5.75,-2.921875 5.75,-2.359375 5.75,-1.25 4.71875,-0.09375 3.53125,-0.09375 c -0.984375,0 -2.078125,-0.421875 -2.078125,-1.765625 0,-0.21875 0.046875,-0.5 0.09375,-0.625 0,-0.03125 0,-0.09375 0,-0.125 0,-0.046875 -0.015625,-0.109375 -0.109375,-0.109375 -0.109375,0 -0.125,0.03125 -0.171875,0.234375 L 0.65625,-0.03125 c 0,0 -0.046875,0.15625 -0.046875,0.171875 C 0.609375,0.25 0.703125,0.25 0.734375,0.25 0.78125,0.25 0.78125,0.234375 0.9375,0.0625 L 1.484375,-0.65625 C 1.765625,-0.234375 2.390625,0.25 3.5,0.25 c 1.546875,0 2.953125,-1.5 2.953125,-2.984375 0,-0.5 -0.125,-0.953125 -0.578125,-1.390625 -0.25,-0.25 -0.453125,-0.3125 -1.5625,-0.59375 -0.796875,-0.21875 -0.90625,-0.25 -1.125,-0.4375 -0.203125,-0.203125 -0.359375,-0.5 -0.359375,-0.90625 0,-1 1.015625,-2.03125 2.15625,-2.03125 1.171875,0 1.71875,0.71875 1.71875,1.859375 0,0.3125 -0.0625,0.625 -0.0625,0.671875 0,0.109375 0.09375,0.109375 0.140625,0.109375 0.109375,0 0.109375,-0.03125 0.15625,-0.21875 z m 0,0"
   id="path15680" />
      </g>
    </g>
  </g>
</g><g
   inkscape:label=""
   transform="translate(129,140.60386)"
   id="g17396"><g
   clip-path="url(#clip-0)"
   id="g17394"
   transform="translate(-0.484374,0.182375)">
    <g
   fill="#000000"
   fill-opacity="1"
   id="g17392">
      <g
   id="g17390"
   transform="translate(0,8.302)">
        <path
   d="m 3.109375,-5.21875 c -1.53125,0.375 -2.625,1.96875 -2.625,3.359375 0,1.28125 0.859375,2 1.8125,2 1.40625,0 2.359375,-1.9375 2.359375,-3.515625 0,-1.078125 -0.5,-1.734375 -0.796875,-2.140625 C 3.421875,-6.078125 2.703125,-7 2.703125,-7.5625 c 0,-0.203125 0.15625,-0.5625 0.671875,-0.5625 0.375,0 0.609375,0.125 0.96875,0.328125 0.109375,0.078125 0.375,0.234375 0.53125,0.234375 0.25,0 0.4375,-0.25 0.4375,-0.453125 0,-0.21875 -0.1875,-0.25 -0.609375,-0.34375 -0.5625,-0.125 -0.71875,-0.125 -0.921875,-0.125 -0.203125,0 -1.375,0 -1.375,1.21875 0,0.578125 0.296875,1.265625 0.703125,2.046875 z m 0.125,0.234375 C 3.6875,-4.046875 3.875,-3.6875 3.875,-2.90625 c 0,0.9375 -0.5,2.8125 -1.5625,2.8125 -0.46875,0 -1.140625,-0.3125 -1.140625,-1.421875 0,-0.78125 0.4375,-3.03125 2.0625,-3.46875 z m 0,0"
   id="path17388" />
      </g>
    </g>
  </g>
</g><g
   inkscape:label=""
   transform="translate(129,140.60386)"
   id="g17988"><g
   clip-path="url(#clip-0)"
   id="g17986"
   transform="translate(-0.484374,0.182375)">
    <g
   fill="#000000"
   fill-opacity="1"
   id="g17984">
      <g
   id="g17982"
   transform="translate(0,8.302)">
        <path
   d="m 3.109375,-5.21875 c -1.53125,0.375 -2.625,1.96875 -2.625,3.359375 0,1.28125 0.859375,2 1.8125,2 1.40625,0 2.359375,-1.9375 2.359375,-3.515625 0,-1.078125 -0.5,-1.734375 -0.796875,-2.140625 C 3.421875,-6.078125 2.703125,-7 2.703125,-7.5625 c 0,-0.203125 0.15625,-0.5625 0.671875,-0.5625 0.375,0 0.609375,0.125 0.96875,0.328125 0.109375,0.078125 0.375,0.234375 0.53125,0.234375 0.25,0 0.4375,-0.25 0.4375,-0.453125 0,-0.21875 -0.1875,-0.25 -0.609375,-0.34375 -0.5625,-0.125 -0.71875,-0.125 -0.921875,-0.125 -0.203125,0 -1.375,0 -1.375,1.21875 0,0.578125 0.296875,1.265625 0.703125,2.046875 z m 0.125,0.234375 C 3.6875,-4.046875 3.875,-3.6875 3.875,-2.90625 c 0,0.9375 -0.5,2.8125 -1.5625,2.8125 -0.46875,0 -1.140625,-0.3125 -1.140625,-1.421875 0,-0.78125 0.4375,-3.03125 2.0625,-3.46875 z m 0,0"
   id="path17980" />
      </g>
    </g>
  </g>
</g><g
   inkscape:label=""
   transform="translate(125.437,140.60386)"
   id="g989"><g
   clip-path="url(#clip-0)"
   id="g987"
   transform="translate(-0.484374,0.182375)">
    <g
   fill="#000000"
   fill-opacity="1"
   id="g985">
      <g
   id="g983"
   transform="translate(0,8.302)">
        <path
   d="m 3.109375,-5.21875 c -1.53125,0.375 -2.625,1.96875 -2.625,3.359375 0,1.28125 0.859375,2 1.8125,2 1.40625,0 2.359375,-1.9375 2.359375,-3.515625 0,-1.078125 -0.5,-1.734375 -0.796875,-2.140625 C 3.421875,-6.078125 2.703125,-7 2.703125,-7.5625 c 0,-0.203125 0.15625,-0.5625 0.671875,-0.5625 0.375,0 0.609375,0.125 0.96875,0.328125 0.109375,0.078125 0.375,0.234375 0.53125,0.234375 0.25,0 0.4375,-0.25 0.4375,-0.453125 0,-0.21875 -0.1875,-0.25 -0.609375,-0.34375 -0.5625,-0.125 -0.71875,-0.125 -0.921875,-0.125 -0.203125,0 -1.375,0 -1.375,1.21875 0,0.578125 0.296875,1.265625 0.703125,2.046875 z m 0.125,0.234375 C 3.6875,-4.046875 3.875,-3.6875 3.875,-2.90625 c 0,0.9375 -0.5,2.8125 -1.5625,2.8125 -0.46875,0 -1.140625,-0.3125 -1.140625,-1.421875 0,-0.78125 0.4375,-3.03125 2.0625,-3.46875 z m 0,0"
   id="path981" />
      </g>
    </g>
  </g>
</g><g
   inkscape:label=""
   transform="translate(125.437,140.60386)"
   id="g1609"><g
   clip-path="url(#clip-0)"
   id="g1607"
   transform="translate(-0.484374,0.182375)">
    <g
   fill="#000000"
   fill-opacity="1"
   id="g1605">
      <g
   id="g1603"
   transform="translate(0,8.302)">
        <path
   d="m 3.109375,-5.21875 c -1.53125,0.375 -2.625,1.96875 -2.625,3.359375 0,1.28125 0.859375,2 1.8125,2 1.40625,0 2.359375,-1.9375 2.359375,-3.515625 0,-1.078125 -0.5,-1.734375 -0.796875,-2.140625 C 3.421875,-6.078125 2.703125,-7 2.703125,-7.5625 c 0,-0.203125 0.15625,-0.5625 0.671875,-0.5625 0.375,0 0.609375,0.125 0.96875,0.328125 0.109375,0.078125 0.375,0.234375 0.53125,0.234375 0.25,0 0.4375,-0.25 0.4375,-0.453125 0,-0.21875 -0.1875,-0.25 -0.609375,-0.34375 -0.5625,-0.125 -0.71875,-0.125 -0.921875,-0.125 -0.203125,0 -1.375,0 -1.375,1.21875 0,0.578125 0.296875,1.265625 0.703125,2.046875 z m 0.125,0.234375 C 3.6875,-4.046875 3.875,-3.6875 3.875,-2.90625 c 0,0.9375 -0.5,2.8125 -1.5625,2.8125 -0.46875,0 -1.140625,-0.3125 -1.140625,-1.421875 0,-0.78125 0.4375,-3.03125 2.0625,-3.46875 z m 0,0"
   id="path1601" />
      </g>
    </g>
  </g>
</g><g
   inkscape:label=""
   transform="matrix(3.9799748,0,0,1,167.16202,214.85388)"
   id="g2252"><g
   clip-path="url(#clip-0)"
   id="g27"
   transform="translate(-0.874998,-0.471624)">
    <g
   fill="#000000"
   fill-opacity="1"
   id="g25">
      <g
   id="use23"
   transform="translate(0,0.95599997)">
        <path
   d="M 4.65625,10.21875 2.546875,5.5625 C 2.46875,5.375 2.40625,5.375 2.359375,5.375 c 0,0 -0.0625,0 -0.203125,0.09375 l -1.125,0.859375 C 0.875,6.453125 0.875,6.484375 0.875,6.53125 c 0,0.0625 0.03125,0.125 0.109375,0.125 0.078125,0 0.28125,-0.171875 0.421875,-0.265625 0.0625,-0.0625 0.25,-0.1875 0.375,-0.28125 l 2.359375,5.171875 c 0.078125,0.1875 0.140625,0.1875 0.25,0.1875 0.171875,0 0.21875,-0.0625 0.296875,-0.234375 L 10.109375,0 c 0.09375,-0.171875 0.09375,-0.21875 0.09375,-0.234375 0,-0.125 -0.109375,-0.25 -0.25,-0.25 -0.09375,0 -0.171875,0.0625 -0.265625,0.25 z m 0,0"
   id="path2238" />
      </g>
    </g>
  </g>
  
  
</g><g
   inkscape:label=""
   transform="translate(201.843,209.60415)"
   id="g3822"><g
   clip-path="url(#clip-0)"
   id="g3820"
   transform="translate(-0.484374,0.182375)">
    <g
   fill="#000000"
   fill-opacity="1"
   id="g3818">
      <g
   id="g3816"
   transform="translate(0,8.302)">
        <path
   d="m 3.109375,-5.21875 c -1.53125,0.375 -2.625,1.96875 -2.625,3.359375 0,1.28125 0.859375,2 1.8125,2 1.40625,0 2.359375,-1.9375 2.359375,-3.515625 0,-1.078125 -0.5,-1.734375 -0.796875,-2.140625 C 3.421875,-6.078125 2.703125,-7 2.703125,-7.5625 c 0,-0.203125 0.15625,-0.5625 0.671875,-0.5625 0.375,0 0.609375,0.125 0.96875,0.328125 0.109375,0.078125 0.375,0.234375 0.53125,0.234375 0.25,0 0.4375,-0.25 0.4375,-0.453125 0,-0.21875 -0.1875,-0.25 -0.609375,-0.34375 -0.5625,-0.125 -0.71875,-0.125 -0.921875,-0.125 -0.203125,0 -1.375,0 -1.375,1.21875 0,0.578125 0.296875,1.265625 0.703125,2.046875 z m 0.125,0.234375 C 3.6875,-4.046875 3.875,-3.6875 3.875,-2.90625 c 0,0.9375 -0.5,2.8125 -1.5625,2.8125 -0.46875,0 -1.140625,-0.3125 -1.140625,-1.421875 0,-0.78125 0.4375,-3.03125 2.0625,-3.46875 z m 0,0"
   id="path3814" />
      </g>
    </g>
  </g>
</g><g
   clip-path="url(#clip-0)"
   id="g5409"
   transform="translate(171.96911,205.03508)">
    <g
   fill="#000000"
   fill-opacity="1"
   id="g5407">
      <g
   id="use25"
   transform="translate(0,8.302)">
        <path
   d="m 3.109375,-5.21875 c -1.53125,0.375 -2.625,1.96875 -2.625,3.359375 0,1.28125 0.859375,2 1.8125,2 1.40625,0 2.359375,-1.9375 2.359375,-3.515625 0,-1.078125 -0.5,-1.734375 -0.796875,-2.140625 C 3.421875,-6.078125 2.703125,-7 2.703125,-7.5625 c 0,-0.203125 0.15625,-0.5625 0.671875,-0.5625 0.375,0 0.609375,0.125 0.96875,0.328125 0.109375,0.078125 0.375,0.234375 0.53125,0.234375 0.25,0 0.4375,-0.25 0.4375,-0.453125 0,-0.21875 -0.1875,-0.25 -0.609375,-0.34375 -0.5625,-0.125 -0.71875,-0.125 -0.921875,-0.125 -0.203125,0 -1.375,0 -1.375,1.21875 0,0.578125 0.296875,1.265625 0.703125,2.046875 z m 0.125,0.234375 C 3.6875,-4.046875 3.875,-3.6875 3.875,-2.90625 c 0,0.9375 -0.5,2.8125 -1.5625,2.8125 -0.46875,0 -1.140625,-0.3125 -1.140625,-1.421875 0,-0.78125 0.4375,-3.03125 2.0625,-3.46875 z m 0,0"
   id="path53" />
      </g>
    </g>
  </g><g
   clip-path="url(#clip-0)"
   id="g53"
   transform="translate(112.54163,206.08352)">
    <g
   fill="#000000"
   fill-opacity="1"
   id="g51">
      <g
   id="use49"
   transform="translate(0,8.302)">
        <path
   d="m 3.109375,-5.21875 c -1.53125,0.375 -2.625,1.96875 -2.625,3.359375 0,1.28125 0.859375,2 1.8125,2 1.40625,0 2.359375,-1.9375 2.359375,-3.515625 0,-1.078125 -0.5,-1.734375 -0.796875,-2.140625 C 3.421875,-6.078125 2.703125,-7 2.703125,-7.5625 c 0,-0.203125 0.15625,-0.5625 0.671875,-0.5625 0.375,0 0.609375,0.125 0.96875,0.328125 0.109375,0.078125 0.375,0.234375 0.53125,0.234375 0.25,0 0.4375,-0.25 0.4375,-0.453125 0,-0.21875 -0.1875,-0.25 -0.609375,-0.34375 -0.5625,-0.125 -0.71875,-0.125 -0.921875,-0.125 -0.203125,0 -1.375,0 -1.375,1.21875 0,0.578125 0.296875,1.265625 0.703125,2.046875 z m 0.125,0.234375 C 3.6875,-4.046875 3.875,-3.6875 3.875,-2.90625 c 0,0.9375 -0.5,2.8125 -1.5625,2.8125 -0.46875,0 -1.140625,-0.3125 -1.140625,-1.421875 0,-0.78125 0.4375,-3.03125 2.0625,-3.46875 z m 0,0"
   id="path125" />
      </g>
    </g>
  </g><g
   clip-path="url(#clip-0)"
   id="g59"
   transform="translate(67.953039,56.68991)">
    <g
   fill="#000000"
   fill-opacity="1"
   id="g57">
      <g
   id="use55"
   transform="translate(0,8.302)">
        <path
   d="m 3.109375,-5.21875 c -1.53125,0.375 -2.625,1.96875 -2.625,3.359375 0,1.28125 0.859375,2 1.8125,2 1.40625,0 2.359375,-1.9375 2.359375,-3.515625 0,-1.078125 -0.5,-1.734375 -0.796875,-2.140625 C 3.421875,-6.078125 2.703125,-7 2.703125,-7.5625 c 0,-0.203125 0.15625,-0.5625 0.671875,-0.5625 0.375,0 0.609375,0.125 0.96875,0.328125 0.109375,0.078125 0.375,0.234375 0.53125,0.234375 0.25,0 0.4375,-0.25 0.4375,-0.453125 0,-0.21875 -0.1875,-0.25 -0.609375,-0.34375 -0.5625,-0.125 -0.71875,-0.125 -0.921875,-0.125 -0.203125,0 -1.375,0 -1.375,1.21875 0,0.578125 0.296875,1.265625 0.703125,2.046875 z m 0.125,0.234375 C 3.6875,-4.046875 3.875,-3.6875 3.875,-2.90625 c 0,0.9375 -0.5,2.8125 -1.5625,2.8125 -0.46875,0 -1.140625,-0.3125 -1.140625,-1.421875 0,-0.78125 0.4375,-3.03125 2.0625,-3.46875 z m 0,0"
   id="path137" />
      </g>
    </g>
  </g><ellipse
   style="fill:none;stroke:#000000;stroke-width:0.425197;stroke-miterlimit:3"
   id="path1"
   cx="205.51138"
   cy="82.487892"
   rx="92.12603"
   ry="14.173237" /><path
   style="font-size:12px;overflow:visible;color-interpolation-filters:sRGB;fill:none;fill-rule:evenodd;stroke:#000000;stroke-width:0.425197;stroke-linecap:square;stroke-miterlimit:3"
   id="path1-9"
   sodipodi:type="arc"
   sodipodi:cx="205.51138"
   sodipodi:cy="125.0076"
   sodipodi:rx="92.12603"
   sodipodi:ry="14.173237"
   sodipodi:start="0"
   sodipodi:end="3.1249131"
   sodipodi:open="true"
   sodipodi:arc-type="arc"
   d="m 297.63741,125.0076 a 92.12603,14.173237 0 0 1 -91.35773,14.17274 92.12603,14.173237 0 0 1 -92.88151,-13.93635" /><path
   style="font-size:12px;overflow:visible;color-interpolation-filters:sRGB;fill:none;fill-rule:evenodd;stroke:#000000;stroke-width:0.425197;stroke-linecap:square;stroke-miterlimit:3;stroke-dasharray:5.10236, 5.10236;stroke-dashoffset:0"
   id="path1-9-8"
   sodipodi:type="arc"
   sodipodi:cx="205.28992"
   sodipodi:cy="125.00755"
   sodipodi:rx="92.12603"
   sodipodi:ry="14.173237"
   sodipodi:start="5.4136227"
   sodipodi:end="4.6305371"
   sodipodi:open="true"
   sodipodi:arc-type="arc"
   d="m 264.72602,114.17854 a 92.12603,14.173237 0 0 1 21.16963,17.69186 92.12603,14.173237 0 0 1 -108.68246,6.63614 92.12603,14.173237 0 0 1 -63.45216,-15.11011 92.12603,14.173237 0 0 1 83.99662,-12.51466" /><path
   style="fill:none;stroke:#000000;stroke-width:0.425197;stroke-miterlimit:3"
   d="M 113.38536,82.487897 V 125.0076"
   id="path2" /><path
   style="font-size:12px;overflow:visible;color-interpolation-filters:sRGB;fill:none;fill-rule:evenodd;stroke:#000000;stroke-width:0.425197;stroke-linecap:square;stroke-miterlimit:3"
   d="M 136.06254,125.0076 96.377474,153.35407"
   id="path2-6"
   sodipodi:nodetypes="cc" /><path
   style="fill:none;stroke:#000000;stroke-width:0.425197;stroke-miterlimit:3"
   d="M 297.63742,82.487897 V 125.0076"
   id="path3" /><path
   style="fill:none;stroke:#000000;stroke-width:0.566929;stroke-miterlimit:3;stroke-dasharray:none;stroke-dashoffset:0;marker-end:url(#DartArrow)"
   d="M 141.73183,170.43378 V 141.94366"
   id="path4"
   sodipodi:nodetypes="cc" /><path
   style="font-size:12px;overflow:visible;color-interpolation-filters:sRGB;fill:none;fill-rule:evenodd;stroke:#000000;stroke-width:0.566929;stroke-linecap:square;stroke-miterlimit:3;stroke-dasharray:none;stroke-dashoffset:0;marker-end:url(#DartArrow-8)"
   d="M 184.25154,176.10308 V 147.61296"
   id="path4-5"
   sodipodi:nodetypes="cc" /><path
   style="font-size:12px;overflow:visible;color-interpolation-filters:sRGB;fill:none;fill-rule:evenodd;stroke:#000000;stroke-width:0.566929;stroke-linecap:square;stroke-miterlimit:3;stroke-dasharray:none;stroke-dashoffset:0;marker-end:url(#DartArrow-8-1)"
   d="M 226.77124,176.10308 V 147.61296"
   id="path4-5-7"
   sodipodi:nodetypes="cc" /><path
   style="font-size:12px;overflow:visible;color-interpolation-filters:sRGB;fill:none;fill-rule:evenodd;stroke:#000000;stroke-width:0.566929;stroke-linecap:square;stroke-miterlimit:3;stroke-dasharray:none;stroke-dashoffset:0;marker-end:url(#DartArrow-8-1-6)"
   d="m 226.77124,54.069594 v 28.49013"
   id="path4-5-7-2"
   sodipodi:nodetypes="cc" /><path
   style="font-size:12px;overflow:visible;color-interpolation-filters:sRGB;fill:none;fill-rule:evenodd;stroke:#000000;stroke-width:0.566929;stroke-linecap:square;stroke-miterlimit:3;stroke-dasharray:none;stroke-dashoffset:0;marker-end:url(#DartArrow-8-1-6-3)"
   d="m 184.25154,53.997766 v 28.49013"
   id="path4-5-7-2-1"
   sodipodi:nodetypes="cc" /><path
   style="font-size:12px;overflow:visible;color-interpolation-filters:sRGB;fill:none;fill-rule:evenodd;stroke:#000000;stroke-width:0.566929;stroke-linecap:square;stroke-miterlimit:3;stroke-dasharray:none;stroke-dashoffset:0;marker-end:url(#DartArrow-8-1-6-3-6)"
   d="m 269.29095,48.400299 v 28.49013"
   id="path4-5-7-2-1-7"
   sodipodi:nodetypes="cc" /><path
   style="font-size:12px;overflow:visible;color-interpolation-filters:sRGB;fill:none;fill-rule:evenodd;stroke:#000000;stroke-width:1.41732;stroke-linecap:square;stroke-miterlimit:3;stroke-dasharray:none;stroke-dashoffset:0;marker-end:url(#DartArrow-8-1-6-3-6-2)"
   d="m 205.74023,105.87373 v 17.45541"
   id="path4-5-7-2-1-7-5"
   sodipodi:nodetypes="cc" /><path
   style="font-size:12px;overflow:visible;color-interpolation-filters:sRGB;fill:none;fill-rule:evenodd;stroke:#000000;stroke-width:0.566929;stroke-linecap:square;stroke-miterlimit:3;stroke-dasharray:none;stroke-dashoffset:0;marker-end:url(#DartArrow-8-1-6-3-6-6)"
   d="m 141.73183,48.400299 v 28.49013"
   id="path4-5-7-2-1-7-9"
   sodipodi:nodetypes="cc" /><path
   style="font-size:12px;overflow:visible;color-interpolation-filters:sRGB;fill:none;fill-rule:evenodd;stroke:#000000;stroke-width:0.566929;stroke-linecap:square;stroke-miterlimit:3;stroke-dasharray:none;stroke-dashoffset:0;marker-end:url(#DartArrow-8-5)"
   d="M 269.29095,170.43378 V 141.94366"
   id="path4-5-1"
   sodipodi:nodetypes="cc" /></g>
</svg>
